<svg xmlns="http://www.w3.org/2000/svg" viewBox="0 0 512 512">
  <defs>
    <linearGradient id="bg" x1="0" y1="0" x2="1" y2="1">
      <stop offset="0" stop-color="#d9a928"/>
      <stop offset="0.48" stop-color="#2f7a48"/>
      <stop offset="1" stop-color="#18201b"/>
    </linearGradient>
  </defs>
  <rect width="512" height="512" rx="108" fill="url(#bg)"/>
  <circle cx="382" cy="112" r="46" fill="rgba(255,255,255,.32)"/>
  <path d="M62 358c70-86 126-112 194-82 62 27 112 13 194-55v229H62z" fill="#203c26"/>
  <path d="M145 398c18-92 57-171 126-238" fill="none" stroke="#fff" stroke-width="24" stroke-linecap="round"/>
  <path d="M251 168c-53-10-94 2-124 36 52 20 94 8 124-36z" fill="#f4f2e9"/>
  <path d="M284 206c54-7 94 9 121 47-54 16-94 .5-121-47z" fill="#f4f2e9"/>
  <path d="M221 265c-47 4-82 24-105 60 49 9 84-11 105-60z" fill="#f4f2e9"/>
</svg>
